<svg class="svg-icon" style="width: 1em;height: 1em;vertical-align: middle;fill: currentColor;overflow: hidden;" viewBox="0 0 1024 1024" version="1.1" xmlns="http://www.w3.org/2000/svg"><path d="M775.62 960H122.38C90.74 960 65 932.19 65 898V222c0-34.19 25.74-62 57.38-62h144.41a32 32 0 0 1 0 64H129v672h640V688a32 32 0 0 1 64 0v210c0 34.19-25.74 62-57.38 62zM801 458a32 32 0 0 1-32-32V224H629.94a32 32 0 0 1 0-64h145.68c31.64 0 57.38 27.81 57.38 62v204a32 32 0 0 1-32 32z m-25.38-234z" fill="#231815" /><path d="M641 261H257a30 30 0 0 1-30-30v-78a30 30 0 0 1 30-30h384a30 30 0 0 1 30 30v78a30 30 0 0 1-30 30z m-354-60h324v-18H287z" fill="#231815" /><path d="M528.19 176a25 25 0 0 1-24.49-20.09c-4.82-24.06-27.82-41.52-54.7-41.52s-49.88 17.46-54.7 41.52a25 25 0 0 1-49-9.82c9.49-47.34 53.11-81.7 103.73-81.7s94.24 34.36 103.73 81.7a25 25 0 0 1-19.6 29.42 25.3 25.3 0 0 1-4.97 0.49zM321 832H193a32 32 0 0 1-32-32v-96a32 32 0 0 1 32-32h128a32 32 0 0 1 32 32v96a32 32 0 0 1-32 32z m-96-64h64v-32h-64z" fill="#231815" /><path d="M385 720m32 0l192 0q32 0 32 32l0 0q0 32-32 32l-192 0q-32 0-32-32l0 0q0-32 32-32Z" fill="#231815" /><path d="M321 640H193a32 32 0 0 1-32-32v-96a32 32 0 0 1 32-32h128a32 32 0 0 1 32 32v96a32 32 0 0 1-32 32z m-96-64h64v-32h-64z" fill="#231815" /><path d="M385 528m32 0l128 0q32 0 32 32l0 0q0 32-32 32l-128 0q-32 0-32-32l0 0q0-32 32-32Z" fill="#231815" /><path d="M321 448H193a32 32 0 0 1-32-32v-96a32 32 0 0 1 32-32h128a32 32 0 0 1 32 32v96a32 32 0 0 1-32 32z m-96-64h64v-32h-64z" fill="#231815" /><path d="M385 336m32 0l192 0q32 0 32 32l0 0q0 32-32 32l-192 0q-32 0-32-32l0 0q0-32 32-32Z" fill="#231815" /><path d="M801 720c-88.22 0-160-71.78-160-160s71.78-160 160-160 160 71.78 160 160-71.78 160-160 160z m0-256a96 96 0 1 0 96 96 96.11 96.11 0 0 0-96-96z" fill="#231815" /><path d="M787.3 625a31.91 31.91 0 0 1-20.69-7.59L734.32 590a32 32 0 1 1 41.38-48.82l8.66 7.34 38.89-43a32 32 0 1 1 47.47 42.92l-59.68 66A31.89 31.89 0 0 1 787.3 625z" fill="#231815" /></svg>